<svg width="24" height="24" viewBox="0 0 24 24" fill="none" xmlns="http://www.w3.org/2000/svg">
<path d="M7.24733 5.9037C7.24733 6.68647 6.62485 7.30741 5.87366 7.30741C5.12248 7.30741 4.5 6.68647 4.5 5.9037C4.5 5.12093 5.12248 4.5 5.87366 4.5C6.62485 4.5 7.24733 5.12093 7.24733 5.9037Z" stroke="black"/>
<path d="M7.24733 12.3673C7.24733 13.1501 6.62485 13.771 5.87366 13.771C5.12248 13.771 4.5 13.1501 4.5 12.3673C4.5 11.5846 5.12248 10.9636 5.87366 10.9636C6.62485 10.9636 7.24733 11.5846 7.24733 12.3673Z" stroke="black"/>
<path d="M7.24733 18.8312C7.24733 19.614 6.62485 20.2349 5.87366 20.2349C5.12248 20.2349 4.5 19.614 4.5 18.8312C4.5 18.0484 5.12248 17.4275 5.87366 17.4275C6.62485 17.4275 7.24733 18.0484 7.24733 18.8312Z" stroke="black"/>
<rect x="9.88965" y="5.47388" width="9.61041" height="1.83342" rx="0.91671" stroke="black"/>
<rect x="9.88965" y="11.9377" width="9.61041" height="1.83342" rx="0.91671" stroke="black"/>
<rect x="9.88965" y="18.4014" width="9.61041" height="1.83342" rx="0.91671" stroke="black"/>
</svg>
